<svg width="43" height="39" viewBox="0 0 43 39" fill="none" xmlns="http://www.w3.org/2000/svg">
<g clip-path="url(#clip0_115_4136)">
<path d="M17.7333 5.57843C17.0918 5.57843 16.4489 5.32752 15.9592 4.82433C14.9797 3.81797 14.9797 2.18636 15.9592 1.17999L16.0714 1.06471C17.0509 0.0583455 18.6389 0.0583455 19.6183 1.06471C20.5978 2.07107 20.5978 3.70269 19.6183 4.70905L19.5061 4.82433C19.0164 5.32752 18.3749 5.57843 17.732 5.57843H17.7333Z" fill="white"/>
<path d="M2.50823 21.2217C1.8667 21.2217 1.22384 20.9695 0.734109 20.4663C-0.245354 19.4599 -0.245354 17.8283 0.734109 16.8219L11.1597 6.11C12.1392 5.10363 13.7272 5.10363 14.7066 6.11C15.6861 7.11636 15.6861 8.74797 14.7066 9.75434L4.28103 20.4663C3.7913 20.9695 3.14976 21.2217 2.50691 21.2217H2.50823Z" fill="#F9A753"/>
<path d="M12.1694 21.9609C11.5278 21.9609 10.885 21.71 10.3952 21.2055C9.41578 20.1991 9.41578 18.5675 10.3952 17.5611L26.7531 0.754041C27.7325 -0.252323 29.3205 -0.252323 30.3 0.754041C31.2794 1.7604 31.2794 3.39202 30.3 4.39838L13.9422 21.2055C13.4524 21.7087 12.8109 21.9609 12.168 21.9609H12.1694Z" fill="#507A22"/>
<path d="M5.59173 28.7179C4.95019 28.7179 4.30734 28.4657 3.8176 27.9625C2.83814 26.9561 2.83814 25.3245 3.8176 24.3181L4.10405 24.0238C5.08351 23.0175 6.67151 23.0175 7.65097 24.0238C8.63044 25.0302 8.63044 26.6618 7.65097 27.6682L7.36453 27.9625C6.8748 28.4657 6.23326 28.7166 5.59173 28.7166V28.7179Z" fill="white"/>
<path d="M35.4443 30.4581C34.8027 30.4581 34.1599 30.2058 33.6701 29.7026C32.6907 28.6962 32.6907 27.0646 33.6701 26.0583L38.7166 20.8732C39.6961 19.8668 41.2841 19.8668 42.2635 20.8732C43.243 21.8795 43.243 23.5112 42.2635 24.5175L37.2171 29.7026C36.7273 30.2058 36.0858 30.4581 35.4429 30.4581H35.4443Z" fill="#507A22"/>
<path d="M27.1321 39C27.0502 39 26.9671 38.9946 26.8852 38.9864C26.8047 38.9783 26.7229 38.9661 26.6424 38.9485C26.5631 38.9322 26.4826 38.9118 26.4047 38.8874C26.3269 38.863 26.249 38.8332 26.1737 38.802C26.0985 38.7694 26.0233 38.7342 25.9507 38.6935C25.8794 38.6541 25.8081 38.6107 25.7408 38.5646C25.6721 38.5185 25.6061 38.4683 25.5428 38.4141C25.4781 38.3612 25.4174 38.3042 25.3593 38.2445C25.3012 38.1849 25.2458 38.1211 25.193 38.056C25.1415 37.9909 25.0926 37.9231 25.0478 37.8526C25.0016 37.7834 24.9593 37.7102 24.921 37.6356C24.8827 37.5623 24.8484 37.485 24.8167 37.4077C24.7851 37.3304 24.7573 37.2504 24.7336 37.1704C24.7098 37.0903 24.69 37.0076 24.6742 36.9262C24.657 36.8435 24.6451 36.7594 24.6372 36.6753C24.628 36.5912 24.624 36.5071 24.624 36.4231C24.624 36.339 24.628 36.2535 24.6372 36.1694C24.6451 36.0853 24.657 36.0012 24.6742 35.9185C24.69 35.8371 24.7098 35.7544 24.7336 35.6744C24.7573 35.5944 24.7851 35.5143 24.8167 35.437C24.8471 35.3597 24.8827 35.2824 24.921 35.2092C24.9593 35.1346 25.0016 35.0613 25.0478 34.9922C25.0926 34.9216 25.1415 34.8538 25.193 34.7887C25.2458 34.7236 25.3012 34.6599 25.3593 34.6002C25.4174 34.5405 25.4781 34.4836 25.5428 34.4307C25.6048 34.3764 25.6721 34.3262 25.7408 34.2801C25.8081 34.234 25.8794 34.1906 25.9507 34.1499C26.0233 34.1106 26.0972 34.0753 26.1737 34.0428C26.249 34.0102 26.3269 33.9817 26.4047 33.9573C26.4826 33.9329 26.5631 33.9126 26.6424 33.8963C26.7229 33.8787 26.8047 33.8665 26.8852 33.8583C27.0489 33.8407 27.2152 33.8407 27.3789 33.8583C27.4608 33.8665 27.5426 33.8787 27.6218 33.8963C27.7023 33.9126 27.7829 33.9329 27.8607 33.9573C27.9386 33.9817 28.0165 34.0102 28.0917 34.0428C28.167 34.0753 28.2422 34.1106 28.3135 34.1499C28.3861 34.1906 28.4574 34.234 28.5247 34.2801C28.5934 34.3262 28.6594 34.3764 28.7227 34.4307C28.7861 34.4836 28.8481 34.5405 28.9062 34.6002C28.9643 34.6599 29.0197 34.7236 29.0712 34.7887C29.1227 34.8538 29.1728 34.9216 29.2177 34.9922C29.2626 35.0613 29.3049 35.1346 29.3431 35.2092C29.3814 35.2824 29.4171 35.3597 29.4487 35.437C29.4791 35.5143 29.5081 35.5944 29.5319 35.6744C29.5557 35.7544 29.5755 35.8371 29.5913 35.9185C29.6071 36.0012 29.6203 36.0853 29.6283 36.1694C29.6362 36.2535 29.6401 36.339 29.6401 36.4231C29.6401 36.5071 29.6362 36.5912 29.6283 36.6753C29.6203 36.7594 29.6071 36.8435 29.5913 36.9262C29.5755 37.0076 29.5557 37.0903 29.5319 37.1704C29.5081 37.2504 29.4791 37.3304 29.4487 37.4077C29.4171 37.485 29.3814 37.5623 29.3431 37.6356C29.3049 37.7102 29.2626 37.7834 29.2177 37.8526C29.1728 37.9231 29.1227 37.9909 29.0712 38.056C29.0197 38.1211 28.9643 38.1849 28.9062 38.2445C28.8481 38.3042 28.7861 38.3612 28.7227 38.4141C28.6594 38.4683 28.5934 38.5185 28.5247 38.5646C28.4574 38.6107 28.3861 38.6541 28.3135 38.6935C28.2422 38.7342 28.167 38.7694 28.0917 38.802C28.0165 38.8332 27.9386 38.863 27.8607 38.8874C27.7829 38.9118 27.7023 38.9322 27.6218 38.9485C27.5426 38.9661 27.4608 38.9783 27.3789 38.9864C27.2971 38.9946 27.2139 39 27.1321 39Z" fill="#F9A753"/>
<path d="M18.3156 37.462C17.6741 37.462 17.0325 37.2111 16.5415 36.7065C15.562 35.7001 15.562 34.0685 16.5415 33.0622L33.562 15.5756C34.5414 14.5692 36.1294 14.5692 37.1089 15.5756C38.0883 16.5819 38.0883 18.2136 37.1089 19.2199L20.0884 36.7079C19.5987 37.211 18.9571 37.4633 18.3143 37.4633L18.3156 37.462Z" fill="white"/>
<path d="M17.2028 38.6053C16.5613 38.6053 15.9184 38.353 15.4287 37.8499C14.4492 36.8435 14.4492 35.2119 15.4287 34.2055L37.2343 11.801C38.2137 10.7947 39.8017 10.7947 40.7812 11.801C41.7607 12.8074 41.7607 14.439 40.7812 15.4454L18.9756 37.8499C18.4859 38.353 17.8443 38.6053 17.2015 38.6053H17.2028Z" fill="white"/>
<path d="M20.9714 23.7783C20.3298 23.7783 19.687 23.5261 19.1972 23.0229C18.2178 22.0165 18.2178 20.3849 19.1972 19.3785L33.1843 5.00734C34.1638 4.00097 35.7518 4.00097 36.7312 5.00734C37.7107 6.0137 37.7107 7.64531 36.7312 8.65168L22.7442 23.0229C22.2544 23.5261 21.6129 23.7783 20.97 23.7783H20.9714Z" fill="#F9A753"/>
<path d="M10.5234 34.5134C9.88183 34.5134 9.23898 34.2612 8.74925 33.758C7.76978 32.7516 7.76978 31.12 8.74925 30.1136L14.4109 24.2965C15.3903 23.2902 16.9783 23.2902 17.9578 24.2965C18.9372 25.3029 18.9372 26.9345 17.9578 27.9409L12.2962 33.758C11.8064 34.2612 11.1649 34.5134 10.522 34.5134H10.5234Z" fill="#507A22"/>
</g>
<defs>
<clipPath id="clip0_115_4136">
<rect width="43" height="39" fill="white"/>
</clipPath>
</defs>
</svg>
