<svg width="126" height="69" viewBox="0 0 126 69" fill="none" xmlns="http://www.w3.org/2000/svg">
<path d="M44.1824 3.15686C44.1824 4.90035 42.7695 6.31373 41.0265 6.31373C39.2836 6.31373 37.8706 4.90035 37.8706 3.15686C37.8706 1.41338 39.2836 0 41.0265 0C42.7695 0 44.1824 1.41338 44.1824 3.15686Z" fill="#FEC177"/>
<path d="M36.0673 6.31373C36.0673 9.05349 33.8469 11.2745 31.108 11.2745C28.3691 11.2745 26.1488 9.05349 26.1488 6.31373C26.1488 3.57396 28.3691 1.35294 31.108 1.35294C33.8469 1.35294 36.0673 3.57396 36.0673 6.31373Z" fill="#7DA638"/>
<path d="M37.8706 17.5882C37.8706 20.0789 35.8522 22.098 33.3622 22.098C30.8723 22.098 28.8538 20.0789 28.8538 17.5882C28.8538 15.0975 30.8723 13.0784 33.3622 13.0784C35.8522 13.0784 37.8706 15.0975 37.8706 17.5882Z" fill="#7DA638"/>
<path d="M26.1488 19.3922C26.1488 22.1319 23.9284 24.3529 21.1895 24.3529C18.4506 24.3529 16.2303 22.1319 16.2303 19.3922C16.2303 16.6524 18.4506 14.4314 21.1895 14.4314C23.9284 14.4314 26.1488 16.6524 26.1488 19.3922Z" fill="#7DA638"/>
<path d="M38.7723 45.098C38.7723 47.3397 36.9557 49.1569 34.7148 49.1569C32.4738 49.1569 30.6572 47.3397 30.6572 45.098C30.6572 42.8564 32.4738 41.0392 34.7148 41.0392C36.9557 41.0392 38.7723 42.8564 38.7723 45.098Z" fill="#7DA638"/>
<path d="M27.9521 46.6765C27.9521 49.2917 25.8327 51.4118 23.2183 51.4118C20.6039 51.4118 18.4845 49.2917 18.4845 46.6765C18.4845 44.0612 20.6039 41.9412 23.2183 41.9412C25.8327 41.9412 27.9521 44.0612 27.9521 46.6765Z" fill="#7DA638"/>
<path d="M15.7794 46.6765C15.7794 48.5445 14.2656 50.0588 12.3981 50.0588C10.5307 50.0588 9.01682 48.5445 9.01682 46.6765C9.01682 44.8084 10.5307 43.2941 12.3981 43.2941C14.2656 43.2941 15.7794 44.8084 15.7794 46.6765Z" fill="#7DA638"/>
<path d="M5.86093 52.0882C5.86093 53.7072 4.54892 55.0196 2.93047 55.0196C1.31201 55.0196 0 53.7072 0 52.0882C0 50.4693 1.31201 49.1569 2.93047 49.1569C4.54892 49.1569 5.86093 50.4693 5.86093 52.0882Z" fill="#7DA638"/>
<path d="M18.4845 57.5C18.4845 59.8662 16.5669 61.7843 14.2015 61.7843C11.8361 61.7843 9.9185 59.8662 9.9185 57.5C9.9185 55.1338 11.8361 53.2157 14.2015 53.2157C16.5669 53.2157 18.4845 55.1338 18.4845 57.5Z" fill="#FEC177"/>
<path d="M31.108 62.9118C31.108 66.2742 28.3831 69 25.0217 69C21.6603 69 18.9353 66.2742 18.9353 62.9118C18.9353 59.5493 21.6603 56.8235 25.0217 56.8235C28.3831 56.8235 31.108 59.5493 31.108 62.9118Z" fill="#7DA638"/>
<path d="M34.7148 33.3726C34.7148 36.8595 31.8889 39.6863 28.403 39.6863C24.9171 39.6863 22.0912 36.8595 22.0912 33.3726C22.0912 29.8856 24.9171 27.0588 28.403 27.0588C31.8889 27.0588 34.7148 29.8856 34.7148 33.3726Z" fill="#FEC177"/>
<path d="M59.7768 45.098H57.1951C56.7379 45.098 56.5094 44.8694 56.5094 44.4121V35.4945L48.9661 19.8787C48.8585 19.6635 48.8585 19.4887 48.9661 19.3542C49.0736 19.2197 49.2215 19.1524 49.4098 19.1524H52.6369C52.9865 19.1524 53.2554 19.3811 53.4436 19.8384L58.4053 30.9349H58.6473L63.5282 19.8384C63.6896 19.3811 63.9585 19.1524 64.335 19.1524H67.5621C67.7772 19.1524 67.9251 19.2197 68.0058 19.3542C68.1134 19.4887 68.1134 19.6635 68.0058 19.8787L60.4625 35.4945V44.4121C60.4625 44.8694 60.2339 45.098 59.7768 45.098Z" fill="white"/>
<path d="M76.0256 41.7489H81.673C83.6899 41.7489 84.6983 40.7805 84.6983 38.8437V36.3419C84.6983 34.4051 83.6361 33.4366 81.5116 33.4366H76.0256C75.7298 33.4366 75.5819 33.5711 75.5819 33.8401V41.3454C75.5819 41.6144 75.7298 41.7489 76.0256 41.7489ZM76.0256 30.2086H81.2696C83.3134 30.2086 84.3353 29.2267 84.3353 27.263V25.4068C84.3353 23.47 83.3403 22.5015 81.3502 22.5015H76.0256C75.7298 22.5015 75.5819 22.636 75.5819 22.9051V29.8051C75.5819 30.0741 75.7298 30.2086 76.0256 30.2086ZM71.669 44.4121V19.8384C71.669 19.3811 71.8976 19.1524 72.3548 19.1524H81.915C83.905 19.1524 85.4513 19.6904 86.5539 20.7665C87.6565 21.8425 88.2078 23.3624 88.2078 25.3261V27.3033C88.2078 29.6437 87.1052 31.1501 84.9 31.8226C85.9488 31.9571 86.8094 32.4144 87.4817 33.1945C88.1809 33.9746 88.5305 35.0238 88.5305 36.3419V38.9244C88.5305 40.8881 87.9792 42.408 86.8766 43.484C85.774 44.56 84.2412 45.098 82.278 45.098H72.3548C71.8976 45.098 71.669 44.8694 71.669 44.4121Z" fill="white"/>
<path d="M93.442 38.8033V37.7542C93.442 37.2969 93.6706 37.0682 94.1277 37.0682H96.7094C97.1666 37.0682 97.3952 37.2969 97.3952 37.7542V38.4805C97.3952 39.6103 97.6372 40.4308 98.1213 40.9419C98.6322 41.4261 99.4659 41.6682 100.622 41.6682H103.406C104.562 41.6682 105.396 41.4127 105.907 40.9015C106.418 40.3635 106.673 39.5027 106.673 38.3191V37.391C106.673 36.5302 106.337 35.8577 105.665 35.3735C105.019 34.8624 104.212 34.5396 103.244 34.4051C102.276 34.2437 101.214 34.0285 100.057 33.7594C98.9011 33.4904 97.8389 33.1811 96.8708 32.8314C95.9026 32.4817 95.0824 31.8226 94.4101 30.8542C93.7647 29.8858 93.442 28.6483 93.442 27.1419V25.4472C93.442 23.4834 93.9933 21.9501 95.0959 20.8472C96.2253 19.7173 97.7717 19.1524 99.7348 19.1524H104.011C106.001 19.1524 107.547 19.7173 108.65 20.8472C109.779 21.9501 110.344 23.4834 110.344 25.4472V26.3349C110.344 26.7922 110.115 27.0208 109.658 27.0208H107.076C106.619 27.0208 106.391 26.7922 106.391 26.3349V25.8103C106.391 24.6536 106.135 23.8331 105.624 23.3489C105.14 22.8378 104.32 22.5822 103.164 22.5822H100.622C99.4659 22.5822 98.6322 22.8513 98.1213 23.3893C97.6372 23.9004 97.3952 24.7881 97.3952 26.0524V27.3033C97.3952 28.5138 98.2692 29.3343 100.017 29.7647C100.797 29.953 101.644 30.1144 102.558 30.2489C103.5 30.3834 104.441 30.5852 105.382 30.8542C106.323 31.1232 107.184 31.4863 107.964 31.9437C108.744 32.3741 109.376 33.0466 109.86 33.9612C110.344 34.8489 110.586 35.9384 110.586 37.2296V38.8033C110.586 40.767 110.021 42.3138 108.892 43.4437C107.789 44.5466 106.256 45.098 104.293 45.098H99.7751C97.812 45.098 96.2657 44.5466 95.1362 43.4437C94.0067 42.3138 93.442 40.767 93.442 38.8033Z" fill="white"/>
<path d="M55.8272 60.3078H55.2776C55.1601 60.3078 55.1013 60.249 55.1013 60.1315V59.6025C55.1013 59.478 55.1601 59.4158 55.2776 59.4158H55.5161C55.9378 59.4158 56.2281 59.3328 56.3871 59.1668C56.553 59.0009 56.6913 58.7277 56.8019 58.3474H56.3871C56.2834 58.3474 56.2108 58.2886 56.1694 58.1711L54.7902 53.5138C54.7626 53.3962 54.8075 53.3374 54.9251 53.3374H55.6198C55.7304 53.3374 55.7995 53.3962 55.8272 53.5138L56.9574 57.5798H56.9989L58.1292 53.5138C58.1499 53.3962 58.219 53.3374 58.3366 53.3374H59.0002C59.1315 53.3374 59.1869 53.3997 59.1661 53.5242L57.7455 58.5134C57.5865 59.0942 57.3618 59.5368 57.0715 59.841C56.7812 60.1522 56.3664 60.3078 55.8272 60.3078Z" fill="white"/>
<path d="M62.4615 58.6275H61.549C61.0374 58.6275 60.6399 58.4857 60.3565 58.2022C60.08 57.9187 59.9417 57.5245 59.9417 57.0197V54.9452C59.9417 54.4335 60.08 54.0393 60.3565 53.7627C60.6399 53.4792 61.0374 53.3374 61.549 53.3374H62.4615C62.9661 53.3374 63.3601 53.4792 63.6436 53.7627C63.9339 54.0393 64.0791 54.4335 64.0791 54.9452V57.0197C64.0791 57.5245 63.9339 57.9187 63.6436 58.2022C63.3601 58.4857 62.9661 58.6275 62.4615 58.6275ZM61.6941 57.7458H62.3267C62.8244 57.7458 63.0732 57.4934 63.0732 56.9886V54.9763C63.0732 54.4715 62.8244 54.2191 62.3267 54.2191H61.6941C61.4314 54.2191 61.2413 54.2814 61.1238 54.4058C61.0063 54.5234 60.9475 54.7135 60.9475 54.9763V56.9886C60.9475 57.2514 61.0063 57.445 61.1238 57.5695C61.2413 57.687 61.4314 57.7458 61.6941 57.7458Z" fill="white"/>
<path d="M67.2304 58.6275H66.7638C66.266 58.6275 65.8824 58.4892 65.6128 58.2126C65.3501 57.929 65.2187 57.5314 65.2187 57.0197V53.5138C65.2187 53.3962 65.2775 53.3374 65.395 53.3374H66.0483C66.1658 53.3374 66.2246 53.3962 66.2246 53.5138V56.9782C66.2246 57.4899 66.4734 57.7458 66.9711 57.7458H67.4689C68.0357 57.7458 68.3192 57.4519 68.3192 56.8641V53.5138C68.3192 53.3962 68.3779 53.3374 68.4954 53.3374H69.1487C69.2731 53.3374 69.3354 53.3962 69.3354 53.5138V58.4511C69.3354 58.5687 69.2731 58.6275 69.1487 58.6275H68.4954C68.3779 58.6275 68.3192 58.5687 68.3192 58.4511V58.0777H68.2777C68.1118 58.4442 67.7627 58.6275 67.2304 58.6275Z" fill="white"/>
<path d="M71.4569 58.6275H70.8037C70.6861 58.6275 70.6274 58.5687 70.6274 58.4511V53.5138C70.6274 53.3962 70.6861 53.3374 70.8037 53.3374H71.4569C71.5745 53.3374 71.6332 53.3962 71.6332 53.5138V53.9079H71.6747C71.7438 53.7351 71.8752 53.5968 72.0687 53.493C72.2692 53.3893 72.4904 53.3374 72.7324 53.3374H73.116C73.2336 53.3374 73.2923 53.3962 73.2923 53.5138V54.0532C73.2923 54.1845 73.2336 54.2399 73.116 54.2191H72.4939C71.9201 54.2191 71.6332 54.5338 71.6332 55.163V58.4511C71.6332 58.5687 71.5745 58.6275 71.4569 58.6275Z" fill="white"/>
<path d="M77.6914 57.7458H78.9772C79.475 57.7458 79.7238 57.4899 79.7238 56.9782V54.9452C79.7238 54.4335 79.475 54.1776 78.9772 54.1776H78.4277C77.8608 54.1776 77.5774 54.4681 77.5774 55.0489V57.6317C77.5774 57.7078 77.6154 57.7458 77.6914 57.7458ZM76.5715 58.4511V51.5119C76.5715 51.3943 76.6303 51.3355 76.7478 51.3355H77.4011C77.5186 51.3355 77.5774 51.3943 77.5774 51.5119V53.8561H77.6188C77.7917 53.4827 78.1408 53.296 78.6661 53.296H79.1224C79.6339 53.296 80.0314 53.4377 80.3149 53.7212C80.5983 53.9978 80.74 54.3885 80.74 54.8933V57.0197C80.74 57.5245 80.5983 57.9187 80.3149 58.2022C80.0314 58.4857 79.6339 58.6275 79.1224 58.6275H76.7478C76.6303 58.6275 76.5715 58.5687 76.5715 58.4511Z" fill="white"/>
<path d="M85.6818 58.6275H83.442C82.9305 58.6275 82.533 58.4857 82.2496 58.2022C81.9731 57.9187 81.8348 57.5245 81.8348 57.0197V54.9452C81.8348 54.4335 81.9731 54.0393 82.2496 53.7627C82.533 53.4792 82.9305 53.3374 83.442 53.3374H84.2923C84.8039 53.3374 85.2014 53.4792 85.4848 53.7627C85.7682 54.0393 85.9099 54.4335 85.9099 54.9452V56.2625C85.9099 56.387 85.8477 56.4492 85.7233 56.4492H82.9443C82.8683 56.4492 82.8302 56.4838 82.8302 56.5529V56.999C82.8302 57.5038 83.0826 57.7562 83.5872 57.7562H85.6818C85.8062 57.7562 85.8685 57.8184 85.8685 57.9429V58.4615C85.8685 58.5721 85.8062 58.6275 85.6818 58.6275ZM82.9443 55.7439H84.8004C84.8696 55.7439 84.9041 55.7093 84.9041 55.6402V54.9763C84.9041 54.7135 84.8454 54.5234 84.7278 54.4058C84.6103 54.2814 84.4202 54.2191 84.1575 54.2191H83.5872C83.3245 54.2191 83.1344 54.2814 83.0169 54.4058C82.8994 54.5234 82.8406 54.7135 82.8406 54.9763V55.6402C82.8406 55.7093 82.8752 55.7439 82.9443 55.7439Z" fill="white"/>
<path d="M88.9395 58.6275H87.0315C86.914 58.6275 86.8552 58.5687 86.8552 58.4511V57.9429C86.8552 57.8322 86.914 57.7769 87.0315 57.7769H88.7736C89.2229 57.7769 89.4476 57.6213 89.4476 57.3101V57.1857C89.4476 56.9091 89.2851 56.6982 88.9602 56.5529L87.83 56.0136C87.4774 55.8476 87.2216 55.6644 87.0626 55.4638C86.9036 55.2633 86.8241 55.0005 86.8241 54.6755C86.8241 53.7835 87.3184 53.3374 88.307 53.3374H90.0283C90.1389 53.3374 90.1942 53.3962 90.1942 53.5138V54.022C90.1942 54.1396 90.1389 54.1984 90.0283 54.1984H88.5144C88.307 54.1984 88.148 54.2364 88.0374 54.3125C87.9268 54.3816 87.8715 54.475 87.8715 54.5925V54.7066C87.8715 54.9279 88.0477 55.1215 88.4003 55.2875L89.5409 55.8684C89.9004 56.0274 90.1458 56.2176 90.2771 56.4388C90.4154 56.6532 90.4845 56.9333 90.4845 57.279C90.4845 58.178 89.9695 58.6275 88.9395 58.6275Z" fill="white"/>
<path d="M91.714 54.2191H91.2163C91.1472 54.2191 91.0988 54.2087 91.0711 54.188C91.0504 54.1603 91.04 54.1154 91.04 54.0532V53.5138C91.04 53.3962 91.0988 53.3374 91.2163 53.3374H91.714C91.7831 53.3374 91.8177 53.3029 91.8177 53.2337V52.3002C91.8177 52.1826 91.8799 52.1239 92.0044 52.1239H92.6576C92.7751 52.1239 92.8339 52.1826 92.8339 52.3002V53.2337C92.8339 53.3029 92.8719 53.3374 92.948 53.3374H93.9123C94.0368 53.3374 94.099 53.3962 94.099 53.5138V54.0532C94.099 54.1638 94.0368 54.2191 93.9123 54.2191H92.948C92.8719 54.2191 92.8339 54.2537 92.8339 54.3228V56.9886C92.8339 57.4934 93.0931 57.7458 93.6116 57.7458H94.016C94.1404 57.7458 94.2027 57.8046 94.2027 57.9221V58.4615C94.2027 58.5721 94.1404 58.6275 94.016 58.6275H93.4561C92.9445 58.6275 92.5436 58.4892 92.2532 58.2126C91.9629 57.9359 91.8177 57.5452 91.8177 57.0405V54.3228C91.8177 54.2537 91.7831 54.2191 91.714 54.2191Z" fill="white"/>
<path d="M99.5519 58.6275H97.6439C97.5264 58.6275 97.4676 58.5687 97.4676 58.4511V57.9429C97.4676 57.8322 97.5264 57.7769 97.6439 57.7769H99.386C99.8353 57.7769 100.06 57.6213 100.06 57.3101V57.1857C100.06 56.9091 99.8975 56.6982 99.5726 56.5529L98.4423 56.0136C98.0898 55.8476 97.834 55.6644 97.675 55.4638C97.516 55.2633 97.4365 55.0005 97.4365 54.6755C97.4365 53.7835 97.9308 53.3374 98.9193 53.3374H100.641C100.751 53.3374 100.807 53.3962 100.807 53.5138V54.022C100.807 54.1396 100.751 54.1984 100.641 54.1984H99.1267C98.9193 54.1984 98.7603 54.2364 98.6497 54.3125C98.5391 54.3816 98.4838 54.475 98.4838 54.5925V54.7066C98.4838 54.9279 98.6601 55.1215 99.0127 55.2875L100.153 55.8684C100.513 56.0274 100.758 56.2176 100.89 56.4388C101.028 56.6532 101.097 56.9333 101.097 57.279C101.097 58.178 100.582 58.6275 99.5519 58.6275Z" fill="white"/>
<path d="M105.914 58.6275H103.674C103.163 58.6275 102.765 58.4857 102.482 58.2022C102.205 57.9187 102.067 57.5245 102.067 57.0197V54.9452C102.067 54.4335 102.205 54.0393 102.482 53.7627C102.765 53.4792 103.163 53.3374 103.674 53.3374H104.525C105.036 53.3374 105.434 53.4792 105.717 53.7627C106.001 54.0393 106.142 54.4335 106.142 54.9452V56.2625C106.142 56.387 106.08 56.4492 105.956 56.4492H103.177C103.101 56.4492 103.063 56.4838 103.063 56.5529V56.999C103.063 57.5038 103.315 57.7562 103.82 57.7562H105.914C106.039 57.7562 106.101 57.8184 106.101 57.9429V58.4615C106.101 58.5721 106.039 58.6275 105.914 58.6275ZM103.177 55.7439H105.033C105.102 55.7439 105.136 55.7093 105.136 55.6402V54.9763C105.136 54.7135 105.078 54.5234 104.96 54.4058C104.843 54.2814 104.653 54.2191 104.39 54.2191H103.82C103.557 54.2191 103.367 54.2814 103.249 54.4058C103.132 54.5234 103.073 54.7135 103.073 54.9763V55.6402C103.073 55.7093 103.108 55.7439 103.177 55.7439Z" fill="white"/>
<path d="M108.114 58.6275H107.461C107.343 58.6275 107.285 58.5687 107.285 58.4511V53.5138C107.285 53.3962 107.343 53.3374 107.461 53.3374H108.114C108.232 53.3374 108.29 53.3962 108.29 53.5138V53.9079H108.332C108.401 53.7351 108.532 53.5968 108.726 53.493C108.926 53.3893 109.148 53.3374 109.39 53.3374H109.773C109.891 53.3374 109.95 53.3962 109.95 53.5138V54.0532C109.95 54.1845 109.891 54.2399 109.773 54.2191H109.151C108.577 54.2191 108.29 54.5338 108.29 55.163V58.4511C108.29 58.5687 108.232 58.6275 108.114 58.6275Z" fill="white"/>
<path d="M110.426 53.3374H111.121C111.231 53.3374 111.297 53.3962 111.318 53.5138L112.396 57.6835H112.469L113.527 53.5138C113.554 53.3962 113.627 53.3374 113.744 53.3374H114.429C114.553 53.3374 114.595 53.3962 114.553 53.5138L113.153 58.4407C113.126 58.5652 113.05 58.6275 112.925 58.6275H111.93C111.805 58.6275 111.729 58.5652 111.702 58.4407L110.302 53.5138C110.274 53.3962 110.316 53.3374 110.426 53.3374Z" fill="white"/>
<path d="M115.458 52.4558V51.5119C115.458 51.4012 115.513 51.3459 115.624 51.3459H116.298C116.408 51.3459 116.464 51.4012 116.464 51.5119V52.4558C116.464 52.5733 116.408 52.6321 116.298 52.6321H115.624C115.513 52.6321 115.458 52.5733 115.458 52.4558ZM115.458 58.4511V53.5138C115.458 53.3962 115.513 53.3374 115.624 53.3374H116.287C116.405 53.3374 116.464 53.3962 116.464 53.5138V58.4511C116.464 58.5203 116.45 58.5687 116.422 58.5963C116.401 58.6171 116.36 58.6275 116.298 58.6275H115.634C115.517 58.6275 115.458 58.5687 115.458 58.4511Z" fill="white"/>
<path d="M121.041 57.9221V58.4615C121.041 58.5721 120.978 58.6275 120.854 58.6275H119.33C118.818 58.6275 118.421 58.4857 118.137 58.2022C117.861 57.9187 117.722 57.5245 117.722 57.0197V54.9452C117.722 54.4335 117.861 54.0393 118.137 53.7627C118.421 53.4792 118.818 53.3374 119.33 53.3374H120.854C120.978 53.3374 121.041 53.3962 121.041 53.5138V54.0532C121.041 54.1638 120.978 54.2191 120.854 54.2191H119.475C118.977 54.2191 118.728 54.475 118.728 54.9867V56.9782C118.728 57.4899 118.977 57.7458 119.475 57.7458H120.854C120.978 57.7458 121.041 57.8046 121.041 57.9221Z" fill="white"/>
<path d="M125.772 58.6275H123.532C123.021 58.6275 122.623 58.4857 122.34 58.2022C122.063 57.9187 121.925 57.5245 121.925 57.0197V54.9452C121.925 54.4335 122.063 54.0393 122.34 53.7627C122.623 53.4792 123.021 53.3374 123.532 53.3374H124.382C124.894 53.3374 125.291 53.4792 125.575 53.7627C125.858 54.0393 126 54.4335 126 54.9452V56.2625C126 56.387 125.938 56.4492 125.813 56.4492H123.034C122.958 56.4492 122.92 56.4838 122.92 56.5529V56.999C122.92 57.5038 123.173 57.7562 123.677 57.7562H125.772C125.896 57.7562 125.959 57.8184 125.959 57.9429V58.4615C125.959 58.5721 125.896 58.6275 125.772 58.6275ZM123.034 55.7439H124.89C124.96 55.7439 124.994 55.7093 124.994 55.6402V54.9763C124.994 54.7135 124.935 54.5234 124.818 54.4058C124.7 54.2814 124.51 54.2191 124.248 54.2191H123.677C123.415 54.2191 123.224 54.2814 123.107 54.4058C122.989 54.5234 122.931 54.7135 122.931 54.9763V55.6402C122.931 55.7093 122.965 55.7439 123.034 55.7439Z" fill="white"/>
</svg>
