<?xml version="1.0" encoding="iso-8859-1"?>
<!-- Uploaded to: SVG Repo, www.svgrepo.com, Generator: SVG Repo Mixer Tools -->
<svg height="800px" width="800px" version="1.1" id="Layer_1" xmlns="http://www.w3.org/2000/svg" xmlns:xlink="http://www.w3.org/1999/xlink" 
	 viewBox="0 0 512 512" xml:space="preserve">
<path style="fill:#6FA945;" d="M512,372.87c0,9.22-7.475,16.696-16.696,16.696H16.696C7.475,389.565,0,382.09,0,372.87V139.13
	c0-9.22,7.475-16.696,16.696-16.696h478.609c9.22,0,16.696,7.475,16.696,16.696V372.87z"/>
<path style="fill:#91DC5A;" d="M395.13,356.174H116.87c-9.223,0-16.696-7.536-16.696-16.76c0-13.304-5.228-25.896-14.728-35.396
	c-9.489-9.494-22.049-14.739-35.359-14.739c-9.223,0-16.696-7.489-16.696-16.711v-33.391c0-9.223,7.473-16.696,16.696-16.696
	c13.31,0,25.869-5.228,35.364-14.723s14.723-21.99,14.723-35.3c0-9.223,7.473-16.631,16.696-16.631H395.13
	c9.223,0,16.696,7.408,16.696,16.631c0,13.31,5.228,25.837,14.723,35.332c9.5,9.494,22.059,14.707,35.364,14.707
	c9.223,0,16.696,7.456,16.696,16.68v33.391c0,9.223-7.473,16.696-16.696,16.696c-13.304,0-25.864,5.228-35.364,14.728
	c-9.494,9.494-14.723,22.118-14.723,35.423C411.826,348.637,404.353,356.174,395.13,356.174z"/>
<path style="fill:#51951F;" d="M495.304,122.435H256v267.13h239.304c9.223,0,16.696-7.601,16.696-16.824V139.002
	C512,129.78,504.527,122.435,495.304,122.435z"/>
<path style="fill:#6DC82A;" d="M461.913,222.481c-13.304,0-25.864-5.228-35.364-14.723c-9.495-9.494-14.723-21.99-14.723-35.3
	c0-9.223-7.473-16.631-16.696-16.631H256v200.348h139.13c9.223,0,16.696-7.536,16.696-16.76c0-13.304,5.228-25.896,14.723-35.39
	c9.5-9.5,22.059-14.744,35.364-14.744c9.223,0,16.696-7.489,16.696-16.711v-33.391C478.609,229.954,471.136,222.481,461.913,222.481
	z"/>
<path style="fill:#6FA945;" d="M256,322.655c-36.826,0-66.783-29.956-66.783-66.783s29.956-66.783,66.783-66.783
	s66.783,29.956,66.783,66.783S292.826,322.655,256,322.655z M256,222.481c-18.413,0-33.391,14.978-33.391,33.391
	s14.978,33.391,33.391,33.391s33.391-14.978,33.391-33.391S274.413,222.481,256,222.481z"/>
<path style="fill:#51951F;" d="M289.391,255.872c0,18.413-14.978,33.391-33.391,33.391v33.391c36.826,0,66.783-29.956,66.783-66.783
	S292.826,189.089,256,189.089v33.391C274.413,222.481,289.391,237.459,289.391,255.872z"/>
</svg>